<?xml version="1.0" encoding="UTF-8"?>
<svg xmlns="http://www.w3.org/2000/svg" viewBox="0 0 1600 500" width="1600" height="500" role="img" aria-label="CannonadeCommand">
  <rect width="1600" height="500" fill="#ffffff"/>
  <g transform="translate(120,50) scale(0.402099)">

  <defs>
    <style>
      .cls-1 {
        fill: #fff;
      }

      .cls-2 {
        fill: #575756;
      }

      .cls-3 {
        fill: #353738;
      }

      .cls-4 {
        fill: #575756;
      }

      .cls-5 {
        fill: #242626;
      }
    </style>
  </defs>
  <g id="logo">
    <rect class="cls-1" x="40" y="40" width="914.78" height="914.78" rx="60.44" ry="60.44"/>
    <g>
      <path class="cls-3" d="M118.96,309.83l1.04-.46v-1.24l-1.04,1.7ZM118.96,309.83l1.04-.46v-1.24l-1.04,1.7ZM874.78,307.98v.54l.45.2-.45-.74ZM874.78,207.42v31.12l55.45-16.31-55.45-14.81ZM894.33,40H100.45c-33.39,0-60.45,27.06-60.45,60.45v116.26l53.55-32.33-35.43-106.84,100.57,42.46h2.05l43.75-71.67,30.01,71.67h524.72l30.47-72.78,44.17,72.36,102.2-43.15-35.42,106.84,54.14,32.69v-115.51c0-33.39-27.06-60.45-60.45-60.45ZM884.79,266.86l26.69,68.54-36.7-19.94v559.32H120V316.24l-37.3,20.27,26.7-68.53-69.4-40.93v667.28c0,33.39,27.06,60.45,60.45,60.45h793.88c33.39,0,60.45-27.06,60.45-60.45V225.59l-69.99,41.27ZM118.96,309.83l1.04-.46v-1.24l-1.04,1.7ZM118.96,309.83l1.04-.46v-1.24l-1.04,1.7Z"/>
      <path class="cls-1" d="M894.33,40c33.38,0,60.44,27.06,60.44,60.44v793.89c0,33.38-27.06,60.44-60.44,60.44H100.44c-33.38,0-60.44-27.06-60.44-60.44V100.44c0-33.38,27.06-60.44,60.44-60.44h793.89ZM894.33,0H100.44C45.06,0,0,45.06,0,100.44v793.89c0,55.39,45.06,100.44,100.44,100.44h793.89c55.39,0,100.44-45.06,100.44-100.44V100.44c0-55.39-45.06-100.44-100.44-100.44h0Z"/>
    </g>
    <g>
      <g>
        <polygon class="cls-4" points="909.93 107.8 817.66 166.22 794.15 92.36 771.6 185 710.35 151.4 743 217.09 808.66 279.71 875.82 309.22 839.36 249.63 930.83 222.73 855.94 202.73 909.93 107.8"/>
        <polygon class="cls-3" points="909.93 107.8 817.66 166.22 794.15 92.36 771.6 185 710.35 151.4 743 217.09 771.58 244.35 746.79 187.36 778.59 205.06 793.81 138.69 806.22 192.09 863.48 156.5 830.64 215.38 884.57 225.25 818.99 243.59 838.17 274.52 776.66 249.19 808.66 279.71 875.82 309.22 839.36 249.63 930.83 222.73 855.94 202.73 909.93 107.8"/>
      </g>
      <g>
        <path class="cls-3" d="M190.06,844.16l-6.42-6.15c-5.48-5.25-4.24-15.42,2.77-22.6l27.01-27.7,26.03,25.57-26.68,27.36c-7,7.18-17.22,8.76-22.7,3.52Z"/>
        <path class="cls-5" d="M344.34,673.23c-.6-.58-1.28-1.06-1.98-1.47l.29.28c5.48,5.25,4.24,15.42-2.77,22.6l-135.23,138.67c-6.23,6.39-15,8.33-20.72,4.99l6.13,5.87c5.48,5.25,15.7,3.67,22.7-3.52l135.23-138.67c7-7.18,8.25-17.35,2.77-22.6l-6.42-6.15Z"/>
        <path class="cls-3" d="M453.34,646.68l16.08,16.82-106.25,111.12h-.01l-8.94,9.36-21.17,22.13-.11.12-7.25,7.58c-1,1-2.01,1.96-3.01,2.9-.46.42-.92.84-1.38,1.25-.53.48-1.07.96-1.6,1.41-.02.02-.03.04-.05.05-16.27,14.03-32.85,19.55-48.42,19.55s-30.71-5.74-43.11-14.06c-3.09-2.07-6.03-4.3-8.79-6.65-2.14-1.8-4.17-3.68-6.09-5.6-2.04-2.04-4.06-4.2-6.01-6.45-.38-.43-.75-.86-1.11-1.29-.04-.05-.08-.09-.11-.13-.4-.48-.8-.96-1.2-1.45-.52-.64-1.04-1.29-1.55-1.95-.31-.39-.61-.79-.91-1.2-.11-.14-.21-.28-.31-.42-.01,0-.01-.01-.02-.01-.05-.06-.1-.13-.14-.2-9.28-12.49-16.13-27.47-16.13-44.08,0-14.54,5.24-30.31,18.7-46.76.32-.4.64-.79.97-1.17.23-.29.48-.58.73-.88,1.05-1.22,2.15-2.45,3.29-3.69,1.07-1.15,2.18-2.3,3.34-3.46.17-.18.33-.34.5-.5l3.97-3.79s-.01,0,0-.01l.03-.03,22.26-21.28,9.48-9.06,115.81-110.73,11.45,11.98,7.74,8.09c-.23,1.24-.42,2.48-.56,3.72-1.23,10.18.13,20.42,4,29.93.37.9.76,1.77,1.18,2.63,2.85,6.17,6.69,11.74,11.44,16.6l2.06,2.11c10.22,10.44,23.62,16.67,38.16,17.82,1.64.13,3.3.2,4.97.2,2.72,0,5.41-.18,8.07-.52Z"/>
        <path class="cls-3" d="M791.69,326.48l-8.32,8.7h0s-12.97,13.57-12.97,13.57l-19.58,20.47-.17.17-8.88,9.3-21.48,22.46-.07.08-12.84,13.42-79.31,82.94-8.99-8.59c.75-3.65,1.16-7.38,1.22-11.13.09-5.8-.63-11.48-2.11-16.91-2.64-9.69-7.7-18.58-14.89-25.93l-2.06-2.11c-4.81-4.91-10.38-8.91-16.59-11.92-.74-.38-1.5-.74-2.27-1.08-.79-.35-1.47-.61-1.96-.8-7.12-2.82-14.65-4.24-22.37-4.24-3.41-.01-6.78.27-10.09.82-1.54.25-3.06.56-4.57.93l-6.96-6.65-10.42-9.97,83.08-79.44,13.39-12.8h0l22.48-21.5,9.3-8.89.17-.16,20.75-19.85,13.33-12.74.06-.06,10.84-10.36,69.31,69.32,22.96,22.95Z"/>
        <path class="cls-5" d="M453.34,646.68l16.08,16.82-106.25,111.12h-.01l-8.94,9.36-21.17,22.13-.11.12-7.25,7.58c-1,1-2.01,1.96-3.01,2.9-.46.42-.92.84-1.38,1.25-.53.48-1.07.96-1.6,1.41-.02.02-.03.04-.05.05-16.27,14.03-32.85,19.55-48.42,19.55s-30.71-5.74-43.11-14.06c-3.09-2.07-6.03-4.3-8.79-6.65-2.14-1.8-4.17-3.68-6.09-5.6-2.04-2.04-4.06-4.2-6.01-6.45-.38-.43-.75-.86-1.11-1.29-.04-.05-.08-.09-.11-.13-.4-.48-.8-.96-1.2-1.45-.52-.64-1.04-1.29-1.55-1.95-.31-.39-.61-.79-.91-1.2-.11-.14-.22-.29-.33-.43.01,0,.01.01.02.01,6.99,5.1,14.85,9.41,23.31,12.31,3.97,1.36,8.07,2.41,12.28,3.07,18.36,2.94,38.68-1.33,58.57-18.26,2.18-1.85,4.36-3.86,6.53-6.03l6.76-7.07.04-.04,21.27-22.25,9.05-9.46,100.45-105.04c1.64.13,3.3.2,4.97.2,2.72,0,5.41-.18,8.07-.52Z"/>
        <path class="cls-5" d="M791.69,326.48l-8.32,8.7h0s-12.97,13.57-12.97,13.57l-19.58,20.47-.17.17-8.88,9.3-21.48,22.46-.07.08-12.84,13.42-79.31,82.94-8.99-8.59c.75-3.65,1.16-7.38,1.22-11.13.09-5.8-.63-11.48-2.11-16.91l65.74-68.75,12.83-13.41.05-.06,21.48-22.46,8.89-9.3.16-.17,19.64-20.54,12.91-13.5h.02s8.82-9.24,8.82-9.24l22.96,22.95Z"/>
      </g>
      <g>
        <path class="cls-3" d="M362.57,802.24l-2.06,2.11c-7.88,8.06-21.28,7.98-29.77-.17l-113.1-108.57c-8.49-8.15-8.99-21.41-1.11-29.47l2.06-2.11c7.88-8.06,21.28-7.98,29.77.17l113.1,108.57c8.49,8.15,8.99,21.41,1.11,29.47Z"/>
        <path class="cls-2" d="M361.46,772.78c6.53,6.27,8.33,15.55,5.23,23.18l-141.87-136.19c7.59-3.32,17.01-1.82,23.54,4.44l113.1,108.57Z"/>
        <path class="cls-5" d="M217.28,695.19c-4.43,4.11-8.77,8.47-12.83,13.52l115.2,110.7c4.4-3.8,8.84-8.29,13.3-13.19l-115.67-111.03Z"/>
      </g>
      <g>
        <path class="cls-3" d="M750.64,397.72l-2.07,2.11c-7.89,8.05-20.5,8.75-28.02,1.57l-100.19-95.66c-7.52-7.18-7.22-19.64.67-27.69l2.07-2.11c7.89-8.05,20.5-8.75,28.02-1.57l100.19,95.66c7.52,7.18,7.22,19.64-.67,27.69Z"/>
        <path class="cls-2" d="M751.4,369.78c5.78,5.52,6.93,14.15,3.56,21.51l-125.56-119.87c7.34-3.57,16.12-2.71,21.9,2.8l100.09,95.56Z"/>
        <polygon class="cls-5" points="622.48 307.77 609.09 320.57 707.79 415.04 720.64 401.63 622.48 307.77"/>
      </g>
      <g>
        <path class="cls-3" d="M815.19,333.17l-2.07,2.11c-7.89,8.05-20.5,8.75-28.02,1.57l-100.19-95.66c-7.52-7.18-7.22-19.64.67-27.69l2.07-2.11c7.89-8.05,20.5-8.75,28.02-1.57l100.19,95.66c7.52,7.18,7.22,19.64-.67,27.69Z"/>
        <path class="cls-2" d="M815.78,305.39c5.78,5.52,6.93,14.15,3.56,21.51l-125.56-119.87c7.34-3.57,16.12-2.71,21.9,2.8l100.09,95.56Z"/>
        <polygon class="cls-5" points="688.58 244.57 675.19 257.37 770.4 348.75 783.37 335.19 688.58 244.57"/>
      </g>
      <path class="cls-2" d="M384.02,574.19c-.23,1.24-.42,2.48-.56,3.72l-98.16,98.14c-2.11,2.11-5.52,2.12-7.65.01l-2.91-2.91c-2.19-2.16-2.18-5.73.03-7.87l101.51-99.18,7.74,8.09Z"/>
      <path class="cls-2" d="M611.46,349.93c0,1.41-.53,2.82-1.61,3.9l-61.89,61.87c-1.54.25-3.06.56-4.57.93l-6.96-6.65,65.8-64.02c2.05-1.99,5.27-2.06,7.4-.14,1.22,1.09,1.83,2.6,1.83,4.11Z"/>
      <path class="cls-2" d="M670.97,278.37l6.66-6.02c2.03-2.01,5.26-2.11,7.4-.22h0c2.37,2.09,2.5,5.76.3,8.01l-6.63,6.27c-2.09,2.14-4.92,2.77-7.07.69l-1.57-1.52c-2.21-2.15-1.28-5.03.9-7.2Z"/>
      <path class="cls-2" d="M186.64,823.17l12.97-12.85c1.08-1.11,2.81-1.16,3.96-.11h0c1.27,1.16,1.35,3.19.17,4.43l-12.95,12.99c-1.12,1.18-2.63,1.53-3.78.37l-.84-.85c-1.19-1.19-.69-2.79.47-3.99Z"/>
      <path class="cls-2" d="M196.35,754.57l9.04-19.71c.77-1.74,3.92-2.42,5.66-1.6l1.09.41c1.92.91,3.48,4.26,2.66,6.19l-9.28,20.42c-.78,1.83-3.59,2.16-5.37,1.21l-1.66-.88c-1.83-.98-2.97-4.18-2.14-6.05Z"/>
    </g>
    <g>
      <g>
        <polygon class="cls-4" points="84.85 108.41 177.12 166.83 200.63 92.97 223.18 185.61 284.43 152.01 251.78 217.7 186.12 280.32 118.96 309.83 155.42 250.24 63.95 223.34 138.84 203.34 84.85 108.41"/>
        <polygon class="cls-3" points="84.85 108.41 177.12 166.83 200.63 92.97 223.18 185.61 284.43 152.01 251.78 217.7 223.2 244.96 247.99 187.97 216.19 205.67 200.97 139.3 188.55 192.7 131.3 157.11 164.14 215.99 110.21 225.86 175.79 244.2 156.6 275.13 218.12 249.8 186.12 280.32 118.96 309.83 155.42 250.24 63.95 223.34 138.84 203.34 84.85 108.41"/>
      </g>
      <g>
        <path class="cls-3" d="M804.72,844.77l6.42-6.15c5.48-5.25,4.24-15.42-2.77-22.6l-27.01-27.7-26.03,25.57,26.68,27.36c7,7.18,17.22,8.76,22.7,3.52Z"/>
        <path class="cls-5" d="M650.44,673.84c.6-.58,1.28-1.06,1.98-1.47l-.29.28c-5.48,5.25-4.24,15.42,2.77,22.6l135.23,138.67c6.23,6.39,15,8.33,20.72,4.99l-6.13,5.87c-5.48,5.25-15.7,3.67-22.7-3.52l-135.23-138.67c-7-7.18-8.25-17.35-2.77-22.6l6.42-6.15Z"/>
        <path class="cls-3" d="M203.09,327.09l466.01,487.34c41.96,41.96,87.07,24.22,112.44-1.16h0c25.38-25.38,46.35-67.25.22-113.39L295.36,234.82l-92.27,92.27Z"/>
        <path class="cls-5" d="M792.76,800.37c-3.48,4.66-7.3,8.98-11.22,12.9h0c-25.38,25.38-70.48,43.12-112.44,1.16L203.09,327.09l22.96-22.96,466.01,487.34c36.1,36.1,74.52,28.01,100.7,8.9Z"/>
      </g>
      <g>
        <path class="cls-3" d="M632.21,802.85l2.06,2.11c7.88,8.06,21.28,7.98,29.77-.17l113.1-108.57c8.49-8.15,8.99-21.41,1.11-29.47l-2.06-2.11c-7.88-8.06-21.28-7.98-29.77.17l-113.1,108.57c-8.49,8.15-8.99,21.41-1.11,29.47Z"/>
        <path class="cls-2" d="M633.32,773.39c-6.53,6.27-8.33,15.55-5.23,23.18l141.87-136.19c-7.59-3.32-17.01-1.82-23.54,4.44l-113.1,108.57Z"/>
        <path class="cls-5" d="M777.5,695.8c4.43,4.11,8.77,8.47,12.83,13.52l-115.2,110.7c-4.4-3.8-8.84-8.29-13.3-13.19l115.67-111.03Z"/>
      </g>
      <g>
        <path class="cls-3" d="M428.67,599.09l2.06,2.11c7.88,8.06,21.28,7.98,29.77-.17l113.1-108.57c8.49-8.15,8.99-21.41,1.11-29.47l-2.06-2.11c-7.88-8.06-21.28-7.98-29.77.17l-113.1,108.57c-8.49,8.15-8.99,21.41-1.11,29.47Z"/>
        <path class="cls-2" d="M429.74,569.59c-6.53,6.27-8.33,15.55-5.23,23.18l141.87-136.19c-7.59-3.32-17.01-1.82-23.54,4.44l-113.1,108.57Z"/>
        <polygon class="cls-5" points="569.26 496.66 582.62 509.49 475.27 612.5 462.28 599.32 569.26 496.66"/>
      </g>
      <g>
        <path class="cls-3" d="M244.14,398.33l2.07,2.11c7.89,8.05,20.5,8.75,28.02,1.57l100.19-95.66c7.52-7.18,7.22-19.64-.67-27.69l-2.07-2.11c-7.89-8.05-20.5-8.75-28.02-1.57l-100.19,95.66c-7.52,7.18-7.22,19.64.67,27.69Z"/>
        <path class="cls-2" d="M243.38,370.39c-5.78,5.52-6.93,14.15-3.56,21.51l125.56-119.87c-7.34-3.57-16.12-2.71-21.9,2.8l-100.09,95.56Z"/>
        <polygon class="cls-5" points="372.29 308.38 385.69 321.18 286.99 415.65 274.14 402.24 372.29 308.38"/>
      </g>
      <g>
        <path class="cls-3" d="M179.59,333.78l2.07,2.11c7.89,8.05,20.5,8.75,28.02,1.57l100.19-95.66c7.52-7.18,7.22-19.64-.67-27.69l-2.07-2.11c-7.89-8.05-20.5-8.75-28.02-1.57l-100.19,95.66c-7.52,7.18-7.22,19.64.67,27.69Z"/>
        <path class="cls-2" d="M179,306c-5.78,5.52-6.93,14.15-3.56,21.51l125.56-119.87c-7.34-3.57-16.12-2.71-21.9,2.8l-100.09,95.56Z"/>
        <polygon class="cls-5" points="306.2 245.18 319.59 257.98 224.38 349.36 211.41 335.8 306.2 245.18"/>
      </g>
      <path class="cls-2" d="M720.01,665.89l-135.72-132.61c-2.05-1.99-5.34-2.19-8.42.88-3.07,3.06-2.79,6.13-.56,8.36l134.17,134.15c2.12,2.12,5.52,2.12,7.65.01l2.91-2.91c2.19-2.17,2.18-5.73-.03-7.88Z"/>
      <path class="cls-2" d="M507.91,458.81l-115.36-112.24c-2.05-1.99-5.28-2.06-7.4-.14h0c-2.35,2.11-2.45,5.78-.22,8.01l113.8,113.78c2.12,2.12,5.52,2.12,7.65.01l1.55-1.54c2.19-2.17,2.18-5.73-.03-7.88Z"/>
      <path class="cls-2" d="M323.81,278.98l-6.66-6.02c-2.03-2.01-5.26-2.11-7.4-.22h0c-2.37,2.09-2.5,5.76-.3,8.01l6.63,6.27c2.09,2.14,4.92,2.77,7.07.69l1.57-1.52c2.21-2.15,1.28-5.03-.9-7.2Z"/>
      <path class="cls-2" d="M808.14,823.78l-12.97-12.85c-1.08-1.11-2.81-1.16-3.96-.11h0c-1.27,1.16-1.35,3.19-.17,4.43l12.95,12.99c1.12,1.18,2.63,1.53,3.78.37l.84-.85c1.19-1.19.69-2.79-.47-3.99Z"/>
      <path class="cls-2" d="M798.43,755.18l-9.04-19.71c-.77-1.74-3.92-2.42-5.66-1.6l-1.09.41c-1.92.91-3.48,4.26-2.66,6.19l9.28,20.42c.78,1.83,3.59,2.16,5.37,1.21l1.66-.88c1.83-.98,2.97-4.18,2.14-6.05Z"/>
    </g>
  </g>

  </g>
  <path d="M630.11 183.57Q629.10 181.82 622.57 181.82Q614.01 181.82 609.60 187.62Q605.18 193.42 605.18 204.36Q605.18 227.09 622.20 227.09Q622.48 227.09 624.64 227.09Q626.80 227.09 628.73 226.49Q630.66 225.89 631.03 225.25Q631.40 224.60 631.40 223.22L631.40 215.86L640.78 216.51L640.78 232.42Q633.61 236.20 622.57 236.20Q608.49 236.20 601.09 228.28Q593.68 220.37 593.68 204.73Q593.68 196.08 596.16 189.64Q598.65 183.20 602.88 179.62Q611.16 172.72 622.57 172.72Q631.77 172.72 639.86 176.49L639.86 192.13L630.48 192.77L630.48 185.60Q630.48 184.22 630.11 183.57M689.73 190.56L689.73 224.79Q689.73 226.26 690.23 226.81Q690.74 227.36 692.03 227.46L694.97 227.64L694.97 235L680.34 235L680.34 229.66L680.07 229.57Q675.47 236.20 667.46 236.20Q658.08 236.20 653.57 230.22Q649.06 224.24 649.06 213.84Q649.06 201.33 655.14 194.34Q661.21 187.34 673.35 187.34Q681.17 187.34 689.73 190.56M679.06 220.37L679.06 196.54Q676.48 195.35 671.97 195.35Q665.81 195.35 663.05 200.32Q660.29 205.28 660.29 213.47Q660.29 228.38 669.86 228.38Q673.90 228.38 676.48 225.94Q679.06 223.50 679.06 220.37M703.90 196.36L700.03 196.08L700.03 188.72L715.58 188.72L715.58 194.70Q717.97 191.30 721.93 189.32Q725.88 187.34 730.48 187.34Q737.48 187.34 741.29 191.35Q745.11 195.35 745.11 203.35L745.11 227.36L750.36 227.64L750.36 235L728.46 235L728.46 228.01L731.50 227.73Q732.88 227.55 733.52 226.95Q734.16 226.35 734.16 224.70L734.16 205.74Q734.16 200.68 732.60 198.25Q731.04 195.81 726.67 195.81Q722.30 195.81 719.72 198.57Q717.14 201.33 717.14 205.10L717.14 227.36L722.39 227.64L722.39 235L700.49 235L700.49 228.01L703.53 227.73Q704.91 227.55 705.55 226.95Q706.20 226.35 706.20 224.70L706.20 199.21Q706.20 196.45 703.90 196.36M759.10 196.36L755.23 196.08L755.23 188.72L770.78 188.72L770.78 194.70Q773.17 191.30 777.13 189.32Q781.08 187.34 785.68 187.34Q792.68 187.34 796.49 191.35Q800.31 195.35 800.31 203.35L800.31 227.36L805.56 227.64L805.56 235L783.66 235L783.66 228.01L786.70 227.73Q788.08 227.55 788.72 226.95Q789.36 226.35 789.36 224.70L789.36 205.74Q789.36 200.68 787.80 198.25Q786.24 195.81 781.87 195.81Q777.50 195.81 774.92 198.57Q772.34 201.33 772.34 205.10L772.34 227.36L777.59 227.64L777.59 235L755.69 235L755.69 228.01L758.73 227.73Q760.11 227.55 760.75 226.95Q761.40 226.35 761.40 224.70L761.40 199.21Q761.40 196.45 759.10 196.36M831.22 228.28Q841.25 228.28 841.25 212.09Q841.25 203.90 839 199.67Q836.74 195.44 831.45 195.44Q826.16 195.44 823.68 199.49Q821.20 203.54 821.20 210.53Q821.20 223.50 825.98 226.81Q828.10 228.28 831.22 228.28M810.06 211.82Q810.06 205.01 812.09 199.99Q814.11 194.98 817.52 192.31Q824.05 187.34 831.96 187.34Q837.48 187.34 841.30 189.14Q845.12 190.93 847.28 193.28Q849.44 195.62 850.96 200.09Q852.48 204.55 852.48 210.62Q852.48 223.32 846.31 229.85Q840.15 236.38 830.53 236.38Q820.92 236.38 815.49 230.17Q810.06 223.96 810.06 211.82M861.95 196.36L858.09 196.08L858.09 188.72L873.64 188.72L873.64 194.70Q876.03 191.30 879.98 189.32Q883.94 187.34 888.54 187.34Q895.53 187.34 899.35 191.35Q903.17 195.35 903.17 203.35L903.17 227.36L908.41 227.64L908.41 235L886.52 235L886.52 228.01L889.55 227.73Q890.93 227.55 891.58 226.95Q892.22 226.35 892.22 224.70L892.22 205.74Q892.22 200.68 890.66 198.25Q889.09 195.81 884.72 195.81Q880.35 195.81 877.78 198.57Q875.20 201.33 875.20 205.10L875.20 227.36L880.44 227.64L880.44 235L858.55 235L858.55 228.01L861.58 227.73Q862.96 227.55 863.61 226.95Q864.25 226.35 864.25 224.70L864.25 199.21Q864.25 196.45 861.95 196.36M955.15 190.56L955.15 224.79Q955.15 226.26 955.65 226.81Q956.16 227.36 957.45 227.46L960.39 227.64L960.39 235L945.76 235L945.76 229.66L945.49 229.57Q940.89 236.20 932.88 236.20Q923.50 236.20 918.99 230.22Q914.48 224.24 914.48 213.84Q914.48 201.33 920.56 194.34Q926.63 187.34 938.77 187.34Q946.59 187.34 955.15 190.56M944.48 220.37L944.48 196.54Q941.90 195.35 937.39 195.35Q931.23 195.35 928.47 200.32Q925.71 205.28 925.71 213.47Q925.71 228.38 935.28 228.38Q939.32 228.38 941.90 225.94Q944.48 223.50 944.48 220.37M989.10 187.34Q993.05 187.34 996.64 188.45L996.64 179.16Q996.64 177.13 994.25 176.95L990.29 176.67L990.29 169.40L1007.40 169.40L1007.40 225.34Q1007.50 227.46 1009.70 227.46L1012.92 227.64L1012.92 235L998.02 235L998.02 229.57L997.74 229.48Q993.60 236.20 985.23 236.20Q974.74 236.20 970.51 229.20Q966.65 222.86 966.65 213.66Q966.65 201.70 972.58 194.52Q978.52 187.34 989.10 187.34M996.64 220.65L996.64 196.82Q993.33 195.35 989.65 195.35Q983.58 195.35 980.77 200.22Q977.96 205.10 977.96 212.64Q977.96 228.10 987.90 228.10Q991.67 228.10 994.16 225.94Q996.64 223.78 996.64 220.65M1041.35 187.34Q1048.25 187.34 1052.30 190.70Q1056.35 194.06 1056.35 200.13Q1056.35 204.18 1054.60 207.26Q1052.85 210.34 1050.28 212.09Q1047.70 213.84 1044.02 214.94Q1037.86 216.78 1030.13 216.78Q1030.40 221.66 1033.16 224.65Q1035.92 227.64 1041.63 227.64Q1047.33 227.64 1053.04 223.59L1056.53 231.04Q1054.69 232.70 1050.32 234.45Q1045.95 236.20 1040.34 236.20Q1029.12 236.20 1023.87 229.99Q1018.63 223.78 1018.63 212.92Q1018.63 202.06 1024.61 194.70Q1030.59 187.34 1041.35 187.34M1037.17 208.37Q1040.52 207.77 1043.38 205.70Q1046.23 203.63 1046.23 200.78Q1046.23 195.16 1040.71 195.16Q1035.56 195.16 1032.80 199.26Q1030.04 203.35 1029.76 209.06Q1033.81 208.96 1037.17 208.37M1099.86 183.57Q1098.85 181.82 1092.32 181.82Q1083.76 181.82 1079.35 187.62Q1074.93 193.42 1074.93 204.36Q1074.93 227.09 1091.95 227.09Q1092.23 227.09 1094.39 227.09Q1096.55 227.09 1098.48 226.49Q1100.42 225.89 1100.78 225.25Q1101.15 224.60 1101.15 223.22L1101.15 215.86L1110.54 216.51L1110.54 232.42Q1103.36 236.20 1092.32 236.20Q1078.24 236.20 1070.84 228.28Q1063.43 220.37 1063.43 204.73Q1063.43 196.08 1065.92 189.64Q1068.40 183.20 1072.63 179.62Q1080.91 172.72 1092.32 172.72Q1101.52 172.72 1109.62 176.49L1109.62 192.13L1100.23 192.77L1100.23 185.60Q1100.23 184.22 1099.86 183.57M1139.33 228.28Q1149.36 228.28 1149.36 212.09Q1149.36 203.90 1147.11 199.67Q1144.85 195.44 1139.56 195.44Q1134.27 195.44 1131.79 199.49Q1129.30 203.54 1129.30 210.53Q1129.30 223.50 1134.09 226.81Q1136.20 228.28 1139.33 228.28M1118.17 211.82Q1118.17 205.01 1120.20 199.99Q1122.22 194.98 1125.62 192.31Q1132.16 187.34 1140.07 187.34Q1145.59 187.34 1149.41 189.14Q1153.22 190.93 1155.39 193.28Q1157.55 195.62 1159.07 200.09Q1160.58 204.55 1160.58 210.62Q1160.58 223.32 1154.42 229.85Q1148.26 236.38 1138.64 236.38Q1129.03 236.38 1123.60 230.17Q1118.17 223.96 1118.17 211.82M1170.06 196.45L1166.20 196.18L1166.20 188.72L1181.74 188.72L1181.74 194.70Q1186.90 187.34 1195.87 187.34Q1204.84 187.34 1207.96 194.70Q1213.12 187.34 1221.95 187.34Q1228.57 187.34 1232.16 191.35Q1235.75 195.35 1235.75 203.35L1235.75 227.36L1240.99 227.64L1240.99 235L1219.10 235L1219.10 228.01L1222.13 227.73Q1223.51 227.55 1224.11 226.95Q1224.71 226.35 1224.80 224.79L1224.80 205.74Q1224.80 200.68 1223.65 198.25Q1222.50 195.81 1218.27 195.81Q1214.04 195.81 1211.78 198.38Q1209.53 200.96 1209.53 205.28L1209.53 227.36L1214.59 227.64L1214.59 235L1192.88 235L1192.88 228.01L1195.91 227.73Q1197.29 227.55 1197.94 226.95Q1198.58 226.35 1198.58 224.70L1198.58 205.74Q1198.58 200.68 1197.43 198.25Q1196.28 195.81 1192 195.81Q1187.72 195.81 1185.52 198.48Q1183.31 201.14 1183.31 205.10L1183.31 227.36L1188.28 227.64L1188.28 235L1166.56 235L1166.56 228.01L1169.60 227.73Q1170.98 227.55 1171.62 226.95Q1172.27 226.35 1172.27 224.70L1172.36 224.70L1172.36 199.30Q1172.36 197.74 1171.85 197.14Q1171.35 196.54 1170.06 196.45M1249.73 196.45L1245.87 196.18L1245.87 188.72L1261.42 188.72L1261.42 194.70Q1266.57 187.34 1275.54 187.34Q1284.51 187.34 1287.64 194.70Q1292.79 187.34 1301.62 187.34Q1308.24 187.34 1311.83 191.35Q1315.42 195.35 1315.42 203.35L1315.42 227.36L1320.66 227.64L1320.66 235L1298.77 235L1298.77 228.01L1301.80 227.73Q1303.18 227.55 1303.78 226.95Q1304.38 226.35 1304.47 224.79L1304.47 205.74Q1304.47 200.68 1303.32 198.25Q1302.17 195.81 1297.94 195.81Q1293.71 195.81 1291.45 198.38Q1289.20 200.96 1289.20 205.28L1289.20 227.36L1294.26 227.64L1294.26 235L1272.55 235L1272.55 228.01L1275.58 227.73Q1276.96 227.55 1277.61 226.95Q1278.25 226.35 1278.25 224.70L1278.25 205.74Q1278.25 200.68 1277.10 198.25Q1275.95 195.81 1271.67 195.81Q1267.40 195.81 1265.19 198.48Q1262.98 201.14 1262.98 205.10L1262.98 227.36L1267.95 227.64L1267.95 235L1246.24 235L1246.24 228.01L1249.27 227.73Q1250.65 227.55 1251.30 226.95Q1251.94 226.35 1251.94 224.70L1252.03 224.70L1252.03 199.30Q1252.03 197.74 1251.53 197.14Q1251.02 196.54 1249.73 196.45M1367.40 190.56L1367.40 224.79Q1367.40 226.26 1367.91 226.81Q1368.41 227.36 1369.70 227.46L1372.64 227.64L1372.64 235L1358.02 235L1358.02 229.66L1357.74 229.57Q1353.14 236.20 1345.14 236.20Q1335.75 236.20 1331.24 230.22Q1326.74 224.24 1326.74 213.84Q1326.74 201.33 1332.81 194.34Q1338.88 187.34 1351.02 187.34Q1358.84 187.34 1367.40 190.56M1356.73 220.37L1356.73 196.54Q1354.15 195.35 1349.64 195.35Q1343.48 195.35 1340.72 200.32Q1337.96 205.28 1337.96 213.47Q1337.96 228.38 1347.53 228.38Q1351.58 228.38 1354.15 225.94Q1356.73 223.50 1356.73 220.37M1381.57 196.36L1377.70 196.08L1377.70 188.72L1393.25 188.72L1393.25 194.70Q1395.64 191.30 1399.60 189.32Q1403.56 187.34 1408.16 187.34Q1415.15 187.34 1418.97 191.35Q1422.78 195.35 1422.78 203.35L1422.78 227.36L1428.03 227.64L1428.03 235L1406.13 235L1406.13 228.01L1409.17 227.73Q1410.55 227.55 1411.19 226.95Q1411.84 226.35 1411.84 224.70L1411.84 205.74Q1411.84 200.68 1410.27 198.25Q1408.71 195.81 1404.34 195.81Q1399.97 195.81 1397.39 198.57Q1394.82 201.33 1394.82 205.10L1394.82 227.36L1400.06 227.64L1400.06 235L1378.16 235L1378.16 228.01L1381.20 227.73Q1382.58 227.55 1383.22 226.95Q1383.87 226.35 1383.87 224.70L1383.87 199.21Q1383.87 196.45 1381.57 196.36M1456.55 187.34Q1460.50 187.34 1464.09 188.45L1464.09 179.16Q1464.09 177.13 1461.70 176.95L1457.74 176.67L1457.74 169.40L1474.86 169.40L1474.86 225.34Q1474.95 227.46 1477.16 227.46L1480.38 227.64L1480.38 235L1465.47 235L1465.47 229.57L1465.20 229.48Q1461.06 236.20 1452.68 236.20Q1442.20 236.20 1437.96 229.20Q1434.10 222.86 1434.10 213.66Q1434.10 201.70 1440.03 194.52Q1445.97 187.34 1456.55 187.34M1464.09 220.65L1464.09 196.82Q1460.78 195.35 1457.10 195.35Q1451.03 195.35 1448.22 200.22Q1445.42 205.10 1445.42 212.64Q1445.42 228.10 1455.35 228.10Q1459.12 228.10 1461.61 225.94Q1464.09 223.78 1464.09 220.65" fill="#242626"/>
  <path d="M621.72 286.85L603.80 286.85L603.80 299.88L619.12 299.88L619.12 303.98L603.80 303.98L603.80 320L598.76 320L598.76 282.74L621.72 282.74L621.72 286.85M627.33 293.66L631.96 293.66L631.96 320L627.33 320L627.33 293.66M632.95 285.39Q632.95 286.07 632.67 286.65Q632.40 287.24 631.95 287.69Q631.49 288.15 630.88 288.41Q630.27 288.67 629.59 288.67Q628.92 288.67 628.33 288.41Q627.75 288.15 627.31 287.69Q626.86 287.24 626.60 286.65Q626.34 286.07 626.34 285.39Q626.34 284.72 626.60 284.11Q626.86 283.50 627.31 283.04Q627.75 282.59 628.33 282.33Q628.92 282.07 629.59 282.07Q630.27 282.07 630.88 282.33Q631.49 282.59 631.95 283.04Q632.40 283.50 632.67 284.11Q632.95 284.72 632.95 285.39M643.63 294.94L643.95 298.94Q645.19 296.24 647.01 294.71Q648.83 293.19 651.46 293.19Q652.29 293.19 653.06 293.38Q653.83 293.56 654.42 293.95L654.09 297.41Q653.93 298.06 653.31 298.06Q652.94 298.06 652.24 297.90Q651.54 297.74 650.65 297.74Q649.41 297.74 648.43 298.11Q647.46 298.47 646.69 299.19Q645.92 299.90 645.31 300.95Q644.70 302.01 644.21 303.36L644.21 320L639.55 320L639.55 293.66L642.20 293.66Q642.96 293.66 643.24 293.95Q643.53 294.23 643.63 294.94M661.70 303.96L676.11 303.96Q676.11 302.35 675.65 301.01Q675.20 299.67 674.33 298.69Q673.46 297.72 672.21 297.19Q670.96 296.65 669.37 296.65Q666.05 296.65 664.11 298.59Q662.17 300.53 661.70 303.96M678.55 314.62L679.85 316.31Q678.99 317.35 677.80 318.12Q676.60 318.88 675.24 319.38Q673.87 319.87 672.42 320.12Q670.96 320.36 669.53 320.36Q666.80 320.36 664.50 319.44Q662.20 318.52 660.52 316.74Q658.84 314.96 657.91 312.33Q656.97 309.70 656.97 306.30Q656.97 303.54 657.82 301.15Q658.66 298.76 660.25 297Q661.83 295.25 664.12 294.25Q666.41 293.25 669.27 293.25Q671.64 293.25 673.65 294.04Q675.67 294.83 677.13 296.33Q678.60 297.82 679.44 300.02Q680.27 302.22 680.27 305.02Q680.27 306.12 680.03 306.48Q679.80 306.84 679.15 306.84L661.55 306.84Q661.63 309.34 662.24 311.19Q662.85 313.03 663.94 314.27Q665.03 315.50 666.54 316.11Q668.05 316.72 669.92 316.72Q671.66 316.72 672.92 316.32Q674.18 315.92 675.09 315.45Q676 314.98 676.62 314.58Q677.23 314.18 677.67 314.18Q678.24 314.18 678.55 314.62M690.59 300.92L690.59 313.66Q691.86 315.37 693.37 316.07Q694.88 316.78 696.75 316.78Q700.44 316.78 702.42 314.15Q704.40 311.52 704.40 306.66Q704.40 304.09 703.94 302.24Q703.49 300.40 702.63 299.21Q701.77 298.03 700.52 297.48Q699.27 296.94 697.69 296.94Q695.43 296.94 693.72 297.98Q692.02 299.02 690.59 300.92M689.94 294.62L690.36 297.74Q692.02 295.69 694.20 294.44Q696.39 293.19 699.20 293.19Q701.48 293.19 703.33 294.06Q705.18 294.94 706.48 296.64Q707.78 298.34 708.48 300.86Q709.18 303.39 709.18 306.66Q709.18 309.57 708.40 312.08Q707.62 314.59 706.15 316.43Q704.68 318.26 702.56 319.31Q700.44 320.36 697.79 320.36Q695.37 320.36 693.64 319.55Q691.92 318.73 690.59 317.27L690.59 328.92L685.94 328.92L685.94 293.66L688.72 293.66Q689.71 293.66 689.94 294.62M726.18 293.25Q729.07 293.25 731.38 294.21Q733.70 295.17 735.34 296.94Q736.97 298.71 737.84 301.21Q738.72 303.72 738.72 306.82Q738.72 309.94 737.84 312.43Q736.97 314.93 735.34 316.70Q733.70 318.47 731.38 319.42Q729.07 320.36 726.18 320.36Q723.27 320.36 720.94 319.42Q718.62 318.47 716.98 316.70Q715.34 314.93 714.47 312.43Q713.60 309.94 713.60 306.82Q713.60 303.72 714.47 301.21Q715.34 298.71 716.98 296.94Q718.62 295.17 720.94 294.21Q723.27 293.25 726.18 293.25M726.18 316.75Q730.08 316.75 732.01 314.14Q733.93 311.52 733.93 306.84Q733.93 302.14 732.01 299.51Q730.08 296.89 726.18 296.89Q724.21 296.89 722.74 297.56Q721.27 298.24 720.29 299.51Q719.32 300.79 718.84 302.64Q718.36 304.50 718.36 306.84Q718.36 311.52 720.29 314.14Q722.23 316.75 726.18 316.75M777.40 293.66L780.89 293.66L772.36 320L768.69 320Q768.02 320 767.76 319.12L761.93 301.25Q761.73 300.66 761.60 300.05Q761.47 299.43 761.34 298.84Q761.21 299.43 761.08 300.05Q760.95 300.66 760.74 301.28L754.81 319.12Q754.58 320 753.77 320L750.29 320L741.76 293.66L745.40 293.66Q745.94 293.66 746.32 293.95Q746.70 294.23 746.83 294.62L751.87 311.58Q752.31 313.45 752.57 315.11Q752.81 314.25 753.05 313.37Q753.30 312.49 753.59 311.58L759.15 294.52Q759.28 294.13 759.61 293.87Q759.93 293.61 760.40 293.61L762.43 293.61Q762.95 293.61 763.29 293.87Q763.62 294.13 763.75 294.52L769.19 311.58Q769.47 312.49 769.71 313.37Q769.94 314.25 770.15 315.11Q770.28 314.25 770.48 313.38Q770.67 312.51 770.90 311.58L776.05 294.62Q776.18 294.21 776.55 293.94Q776.91 293.66 777.40 293.66M788.64 303.96L803.04 303.96Q803.04 302.35 802.59 301.01Q802.13 299.67 801.26 298.69Q800.39 297.72 799.14 297.19Q797.89 296.65 796.31 296.65Q792.98 296.65 791.04 298.59Q789.10 300.53 788.64 303.96M805.48 314.62L806.78 316.31Q805.93 317.35 804.73 318.12Q803.53 318.88 802.17 319.38Q800.80 319.87 799.35 320.12Q797.89 320.36 796.46 320.36Q793.73 320.36 791.43 319.44Q789.13 318.52 787.45 316.74Q785.78 314.96 784.84 312.33Q783.90 309.70 783.90 306.30Q783.90 303.54 784.75 301.15Q785.59 298.76 787.18 297Q788.77 295.25 791.05 294.25Q793.34 293.25 796.20 293.25Q798.57 293.25 800.58 294.04Q802.60 294.83 804.07 296.33Q805.54 297.82 806.37 300.02Q807.20 302.22 807.20 305.02Q807.20 306.12 806.97 306.48Q806.73 306.84 806.08 306.84L788.48 306.84Q788.56 309.34 789.17 311.19Q789.78 313.03 790.87 314.27Q791.96 315.50 793.47 316.11Q794.98 316.72 796.85 316.72Q798.59 316.72 799.86 316.32Q801.12 315.92 802.03 315.45Q802.94 314.98 803.55 314.58Q804.16 314.18 804.60 314.18Q805.17 314.18 805.48 314.62M816.95 294.94L817.26 298.94Q818.51 296.24 820.33 294.71Q822.15 293.19 824.78 293.19Q825.61 293.19 826.38 293.38Q827.14 293.56 827.74 293.95L827.40 297.41Q827.25 298.06 826.62 298.06Q826.26 298.06 825.56 297.90Q824.85 297.74 823.97 297.74Q822.72 297.74 821.75 298.11Q820.77 298.47 820 299.19Q819.24 299.90 818.63 300.95Q818.02 302.01 817.52 303.36L817.52 320L812.87 320L812.87 293.66L815.52 293.66Q816.27 293.66 816.56 293.95Q816.85 294.23 816.95 294.94M859.38 313.60L859.38 308.14Q856.18 308.25 853.94 308.65Q851.69 309.05 850.27 309.70Q848.85 310.35 848.22 311.24Q847.58 312.12 847.58 313.21Q847.58 314.25 847.92 315.01Q848.25 315.76 848.84 316.24Q849.42 316.72 850.22 316.94Q851.01 317.17 851.92 317.17Q853.14 317.17 854.16 316.92Q855.17 316.67 856.07 316.20Q856.96 315.74 857.78 315.09Q858.60 314.44 859.38 313.60M845.26 298.86L844.43 297.38Q846.62 295.27 849.14 294.23Q851.66 293.19 854.73 293.19Q856.94 293.19 858.65 293.92Q860.37 294.65 861.54 295.95Q862.71 297.25 863.31 299.10Q863.91 300.94 863.91 303.15L863.91 320L861.85 320Q861.18 320 860.81 319.78Q860.45 319.56 860.24 318.91L859.72 316.41Q858.68 317.37 857.69 318.12Q856.70 318.86 855.61 319.36Q854.52 319.87 853.28 320.14Q852.05 320.42 850.54 320.42Q849.01 320.42 847.66 319.99Q846.30 319.56 845.30 318.70Q844.30 317.84 843.72 316.53Q843.13 315.22 843.13 313.42Q843.13 311.86 843.99 310.42Q844.85 308.98 846.77 307.86Q848.70 306.74 851.79 306.02Q854.88 305.31 859.38 305.21L859.38 303.15Q859.38 300.08 858.06 298.51Q856.73 296.94 854.18 296.94Q852.47 296.94 851.31 297.37Q850.15 297.80 849.31 298.33Q848.46 298.86 847.85 299.29Q847.24 299.72 846.64 299.72Q846.17 299.72 845.84 299.47Q845.50 299.23 845.26 298.86M874.96 294.62L875.32 297.48Q876.18 296.52 877.14 295.74Q878.10 294.96 879.18 294.40Q880.26 293.84 881.47 293.55Q882.68 293.25 884.08 293.25Q886.24 293.25 887.89 293.96Q889.54 294.68 890.65 295.99Q891.75 297.30 892.32 299.15Q892.90 300.99 892.90 303.23L892.90 320L888.24 320L888.24 303.23Q888.24 300.24 886.88 298.59Q885.51 296.94 882.73 296.94Q880.68 296.94 878.90 297.93Q877.11 298.91 875.61 300.60L875.61 320L870.95 320L870.95 293.66L873.73 293.66Q874.72 293.66 874.96 294.62M917.13 312.64L917.13 299.93Q915.83 298.19 914.32 297.50Q912.81 296.81 910.94 296.81Q907.27 296.81 905.30 299.43Q903.32 302.06 903.32 306.92Q903.32 309.50 903.76 311.33Q904.21 313.16 905.06 314.35Q905.92 315.53 907.17 316.07Q908.42 316.62 910 316.62Q912.29 316.62 914 315.58Q915.70 314.54 917.13 312.64M917.13 281.70L921.76 281.70L921.76 320L919 320Q918.01 320 917.75 319.04L917.34 315.84Q915.65 317.87 913.49 319.12Q911.33 320.36 908.50 320.36Q906.23 320.36 904.39 319.49Q902.54 318.62 901.24 316.93Q899.94 315.24 899.24 312.72Q898.54 310.20 898.54 306.92Q898.54 304.01 899.32 301.50Q900.10 298.99 901.55 297.15Q903.01 295.30 905.13 294.25Q907.25 293.19 909.90 293.19Q912.32 293.19 914.05 294.01Q915.78 294.83 917.13 296.29L917.13 281.70M948.77 320L944.12 320L944.12 297.61L941.20 297.28Q940.66 297.15 940.31 296.87Q939.96 296.60 939.96 296.08L939.96 294.18L944.12 294.18L944.12 291.63Q944.12 289.37 944.75 287.62Q945.39 285.86 946.57 284.65Q947.76 283.44 949.42 282.82Q951.08 282.20 953.16 282.20Q954.93 282.20 956.41 282.72L956.31 285.03Q956.26 285.65 955.62 285.71Q954.98 285.76 953.92 285.76Q952.72 285.76 951.75 286.07Q950.77 286.38 950.07 287.08Q949.37 287.79 948.99 288.93Q948.61 290.07 948.61 291.76L948.61 294.18L956.21 294.18L956.21 297.54L948.77 297.54L948.77 320M960.89 293.66L965.51 293.66L965.51 320L960.89 320L960.89 293.66M966.50 285.39Q966.50 286.07 966.23 286.65Q965.96 287.24 965.50 287.69Q965.05 288.15 964.44 288.41Q963.82 288.67 963.15 288.67Q962.47 288.67 961.89 288.41Q961.30 288.15 960.86 287.69Q960.42 287.24 960.16 286.65Q959.90 286.07 959.90 285.39Q959.90 284.72 960.16 284.11Q960.42 283.50 960.86 283.04Q961.30 282.59 961.89 282.33Q962.47 282.07 963.15 282.07Q963.82 282.07 964.44 282.33Q965.05 282.59 965.50 283.04Q965.96 283.50 966.23 284.11Q966.50 284.72 966.50 285.39M977.11 294.62L977.47 297.48Q978.33 296.52 979.29 295.74Q980.26 294.96 981.34 294.40Q982.41 293.84 983.62 293.55Q984.83 293.25 986.24 293.25Q988.39 293.25 990.05 293.96Q991.70 294.68 992.80 295.99Q993.91 297.30 994.48 299.15Q995.05 300.99 995.05 303.23L995.05 320L990.40 320L990.40 303.23Q990.40 300.24 989.03 298.59Q987.67 296.94 984.88 296.94Q982.83 296.94 981.05 297.93Q979.27 298.91 977.76 300.60L977.76 320L973.11 320L973.11 293.66L975.89 293.66Q976.88 293.66 977.11 294.62M1002.38 293.66L1007.01 293.66L1007.01 320L1002.38 320L1002.38 293.66M1008 285.39Q1008 286.07 1007.73 286.65Q1007.45 287.24 1007 287.69Q1006.54 288.15 1005.93 288.41Q1005.32 288.67 1004.64 288.67Q1003.97 288.67 1003.38 288.41Q1002.80 288.15 1002.36 287.69Q1001.91 287.24 1001.65 286.65Q1001.39 286.07 1001.39 285.39Q1001.39 284.72 1001.65 284.11Q1001.91 283.50 1002.36 283.04Q1002.80 282.59 1003.38 282.33Q1003.97 282.07 1004.64 282.07Q1005.32 282.07 1005.93 282.33Q1006.54 282.59 1007 283.04Q1007.45 283.50 1007.73 284.11Q1008 284.72 1008 285.39M1030.98 296.31L1029.94 298Q1029.63 298.58 1028.98 298.58Q1028.59 298.58 1028.10 298.29Q1027.60 298 1026.89 297.65Q1026.17 297.30 1025.18 297Q1024.20 296.70 1022.84 296.70Q1021.67 296.70 1020.74 297Q1019.80 297.30 1019.14 297.82Q1018.48 298.34 1018.13 299.03Q1017.77 299.72 1017.77 300.53Q1017.77 301.54 1018.36 302.22Q1018.94 302.89 1019.91 303.39Q1020.87 303.88 1022.09 304.26Q1023.31 304.63 1024.60 305.06Q1025.89 305.49 1027.11 306.01Q1028.33 306.53 1029.29 307.31Q1030.25 308.09 1030.84 309.22Q1031.42 310.35 1031.42 311.94Q1031.42 313.76 1030.77 315.31Q1030.12 316.85 1028.85 317.99Q1027.58 319.12 1025.73 319.77Q1023.88 320.42 1021.47 320.42Q1018.71 320.42 1016.47 319.52Q1014.24 318.62 1012.68 317.22L1013.77 315.45Q1013.98 315.11 1014.26 314.93Q1014.55 314.75 1014.99 314.75Q1015.46 314.75 1015.98 315.11Q1016.50 315.48 1017.24 315.92Q1017.98 316.36 1019.05 316.72Q1020.11 317.09 1021.70 317.09Q1023.05 317.09 1024.07 316.74Q1025.08 316.39 1025.76 315.79Q1026.43 315.19 1026.76 314.41Q1027.08 313.63 1027.08 312.75Q1027.08 311.65 1026.50 310.94Q1025.91 310.22 1024.95 309.72Q1023.99 309.21 1022.75 308.83Q1021.52 308.46 1020.23 308.04Q1018.94 307.62 1017.71 307.09Q1016.47 306.56 1015.51 305.75Q1014.55 304.95 1013.97 303.76Q1013.38 302.58 1013.38 300.89Q1013.38 299.38 1014 297.99Q1014.63 296.60 1015.82 295.55Q1017.02 294.49 1018.76 293.87Q1020.50 293.25 1022.74 293.25Q1025.34 293.25 1027.41 294.06Q1029.47 294.88 1030.98 296.31M1041.77 281.70L1041.77 297.17Q1043.46 295.38 1045.52 294.31Q1047.57 293.25 1050.25 293.25Q1052.41 293.25 1054.06 293.96Q1055.71 294.68 1056.81 295.99Q1057.92 297.30 1058.49 299.15Q1059.06 300.99 1059.06 303.23L1059.06 320L1054.41 320L1054.41 303.23Q1054.41 300.24 1053.04 298.59Q1051.68 296.94 1048.90 296.94Q1046.84 296.94 1045.06 297.93Q1043.28 298.91 1041.77 300.60L1041.77 320L1037.12 320L1037.12 281.70L1041.77 281.70M1085.82 320L1081.16 320L1081.16 297.61L1078.25 297.28Q1077.70 297.15 1077.35 296.87Q1077 296.60 1077 296.08L1077 294.18L1081.16 294.18L1081.16 291.63Q1081.16 289.37 1081.80 287.62Q1082.44 285.86 1083.62 284.65Q1084.80 283.44 1086.47 282.82Q1088.13 282.20 1090.21 282.20Q1091.98 282.20 1093.46 282.72L1093.36 285.03Q1093.30 285.65 1092.67 285.71Q1092.03 285.76 1090.96 285.76Q1089.77 285.76 1088.79 286.07Q1087.82 286.38 1087.12 287.08Q1086.41 287.79 1086.04 288.93Q1085.66 290.07 1085.66 291.76L1085.66 294.18L1093.25 294.18L1093.25 297.54L1085.82 297.54L1085.82 320M1108.77 293.25Q1111.66 293.25 1113.97 294.21Q1116.29 295.17 1117.93 296.94Q1119.56 298.71 1120.44 301.21Q1121.31 303.72 1121.31 306.82Q1121.31 309.94 1120.44 312.43Q1119.56 314.93 1117.93 316.70Q1116.29 318.47 1113.97 319.42Q1111.66 320.36 1108.77 320.36Q1105.86 320.36 1103.54 319.42Q1101.21 318.47 1099.57 316.70Q1097.93 314.93 1097.06 312.43Q1096.19 309.94 1096.19 306.82Q1096.19 303.72 1097.06 301.21Q1097.93 298.71 1099.57 296.94Q1101.21 295.17 1103.54 294.21Q1105.86 293.25 1108.77 293.25M1108.77 316.75Q1112.67 316.75 1114.60 314.14Q1116.52 311.52 1116.52 306.84Q1116.52 302.14 1114.60 299.51Q1112.67 296.89 1108.77 296.89Q1106.80 296.89 1105.33 297.56Q1103.86 298.24 1102.88 299.51Q1101.91 300.79 1101.43 302.64Q1100.95 304.50 1100.95 306.84Q1100.95 311.52 1102.88 314.14Q1104.82 316.75 1108.77 316.75M1131.24 294.94L1131.55 298.94Q1132.80 296.24 1134.62 294.71Q1136.44 293.19 1139.06 293.19Q1139.90 293.19 1140.66 293.38Q1141.43 293.56 1142.03 293.95L1141.69 297.41Q1141.53 298.06 1140.91 298.06Q1140.55 298.06 1139.84 297.90Q1139.14 297.74 1138.26 297.74Q1137.01 297.74 1136.04 298.11Q1135.06 298.47 1134.29 299.19Q1133.53 299.90 1132.91 300.95Q1132.30 302.01 1131.81 303.36L1131.81 320L1127.16 320L1127.16 293.66L1129.81 293.66Q1130.56 293.66 1130.85 293.95Q1131.13 294.23 1131.24 294.94M1174.87 316Q1177.18 316 1179 315.22Q1180.82 314.44 1182.08 313.03Q1183.34 311.63 1184.01 309.68Q1184.67 307.73 1184.67 305.39L1184.67 282.74L1189.69 282.74L1189.69 305.39Q1189.69 308.61 1188.66 311.37Q1187.63 314.12 1185.72 316.14Q1183.81 318.15 1181.05 319.30Q1178.30 320.44 1174.87 320.44Q1171.43 320.44 1168.68 319.30Q1165.92 318.15 1164 316.14Q1162.07 314.12 1161.05 311.37Q1160.02 308.61 1160.02 305.39L1160.02 282.74L1165.04 282.74L1165.04 305.36Q1165.04 307.70 1165.70 309.65Q1166.36 311.60 1167.63 313.01Q1168.89 314.41 1170.72 315.20Q1172.55 316 1174.87 316M1201.65 294.62L1202.01 297.48Q1202.87 296.52 1203.83 295.74Q1204.79 294.96 1205.87 294.40Q1206.95 293.84 1208.16 293.55Q1209.37 293.25 1210.77 293.25Q1212.93 293.25 1214.58 293.96Q1216.23 294.68 1217.34 295.99Q1218.44 297.30 1219.01 299.15Q1219.59 300.99 1219.59 303.23L1219.59 320L1214.93 320L1214.93 303.23Q1214.93 300.24 1213.57 298.59Q1212.20 296.94 1209.42 296.94Q1207.37 296.94 1205.59 297.93Q1203.80 298.91 1202.30 300.60L1202.30 320L1197.64 320L1197.64 293.66L1200.42 293.66Q1201.41 293.66 1201.65 294.62M1230.74 294.94L1231.05 298.94Q1232.30 296.24 1234.12 294.71Q1235.94 293.19 1238.57 293.19Q1239.40 293.19 1240.17 293.38Q1240.93 293.56 1241.53 293.95L1241.19 297.41Q1241.04 298.06 1240.41 298.06Q1240.05 298.06 1239.35 297.90Q1238.64 297.74 1237.76 297.74Q1236.51 297.74 1235.54 298.11Q1234.56 298.47 1233.80 299.19Q1233.03 299.90 1232.42 300.95Q1231.81 302.01 1231.31 303.36L1231.31 320L1226.66 320L1226.66 293.66L1229.31 293.66Q1230.06 293.66 1230.35 293.95Q1230.64 294.23 1230.74 294.94M1259.86 313.60L1259.86 308.14Q1256.66 308.25 1254.41 308.65Q1252.16 309.05 1250.75 309.70Q1249.33 310.35 1248.69 311.24Q1248.06 312.12 1248.06 313.21Q1248.06 314.25 1248.39 315.01Q1248.73 315.76 1249.32 316.24Q1249.90 316.72 1250.70 316.94Q1251.49 317.17 1252.40 317.17Q1253.62 317.17 1254.63 316.92Q1255.65 316.67 1256.55 316.20Q1257.44 315.74 1258.26 315.09Q1259.08 314.44 1259.86 313.60M1245.74 298.86L1244.91 297.38Q1247.09 295.27 1249.62 294.23Q1252.14 293.19 1255.21 293.19Q1257.42 293.19 1259.13 293.92Q1260.85 294.65 1262.02 295.95Q1263.19 297.25 1263.79 299.10Q1264.38 300.94 1264.38 303.15L1264.38 320L1262.33 320Q1261.65 320 1261.29 319.78Q1260.93 319.56 1260.72 318.91L1260.20 316.41Q1259.16 317.37 1258.17 318.12Q1257.18 318.86 1256.09 319.36Q1255 319.87 1253.76 320.14Q1252.53 320.42 1251.02 320.42Q1249.49 320.42 1248.13 319.99Q1246.78 319.56 1245.78 318.70Q1244.78 317.84 1244.20 316.53Q1243.61 315.22 1243.61 313.42Q1243.61 311.86 1244.47 310.42Q1245.33 308.98 1247.25 307.86Q1249.17 306.74 1252.27 306.02Q1255.36 305.31 1259.86 305.21L1259.86 303.15Q1259.86 300.08 1258.53 298.51Q1257.21 296.94 1254.66 296.94Q1252.94 296.94 1251.79 297.37Q1250.63 297.80 1249.79 298.33Q1248.94 298.86 1248.33 299.29Q1247.72 299.72 1247.12 299.72Q1246.65 299.72 1246.31 299.47Q1245.98 299.23 1245.74 298.86M1271.69 293.66L1276.32 293.66L1276.32 320L1271.69 320L1271.69 293.66M1277.31 285.39Q1277.31 286.07 1277.03 286.65Q1276.76 287.24 1276.31 287.69Q1275.85 288.15 1275.24 288.41Q1274.63 288.67 1273.95 288.67Q1273.28 288.67 1272.69 288.41Q1272.11 288.15 1271.66 287.69Q1271.22 287.24 1270.96 286.65Q1270.70 286.07 1270.70 285.39Q1270.70 284.72 1270.96 284.11Q1271.22 283.50 1271.66 283.04Q1272.11 282.59 1272.69 282.33Q1273.28 282.07 1273.95 282.07Q1274.63 282.07 1275.24 282.33Q1275.85 282.59 1276.31 283.04Q1276.76 283.50 1277.03 284.11Q1277.31 284.72 1277.31 285.39M1301.07 312.64L1301.07 299.93Q1299.77 298.19 1298.26 297.50Q1296.75 296.81 1294.88 296.81Q1291.22 296.81 1289.24 299.43Q1287.26 302.06 1287.26 306.92Q1287.26 309.50 1287.71 311.33Q1288.15 313.16 1289.01 314.35Q1289.86 315.53 1291.11 316.07Q1292.36 316.62 1293.95 316.62Q1296.23 316.62 1297.94 315.58Q1299.64 314.54 1301.07 312.64M1301.07 281.70L1305.70 281.70L1305.70 320L1302.94 320Q1301.95 320 1301.69 319.04L1301.28 315.84Q1299.59 317.87 1297.43 319.12Q1295.27 320.36 1292.44 320.36Q1290.18 320.36 1288.33 319.49Q1286.48 318.62 1285.18 316.93Q1283.88 315.24 1283.18 312.72Q1282.48 310.20 1282.48 306.92Q1282.48 304.01 1283.26 301.50Q1284.04 298.99 1285.50 297.15Q1286.95 295.30 1289.07 294.25Q1291.19 293.19 1293.84 293.19Q1296.26 293.19 1297.99 294.01Q1299.72 294.83 1301.07 296.29L1301.07 281.70M1312.67 282.74L1316.70 282.74L1316.70 290.28L1316.28 294.31Q1316.15 295.14 1315.80 295.60Q1315.45 296.05 1314.67 296.05Q1313.97 296.05 1313.59 295.60Q1313.21 295.14 1313.08 294.31L1312.67 290.28L1312.67 282.74M1340.02 296.31L1338.98 298Q1338.67 298.58 1338.02 298.58Q1337.63 298.58 1337.13 298.29Q1336.64 298 1335.92 297.65Q1335.21 297.30 1334.22 297Q1333.23 296.70 1331.88 296.70Q1330.71 296.70 1329.77 297Q1328.84 297.30 1328.18 297.82Q1327.51 298.34 1327.16 299.03Q1326.81 299.72 1326.81 300.53Q1326.81 301.54 1327.40 302.22Q1327.98 302.89 1328.94 303.39Q1329.90 303.88 1331.13 304.26Q1332.35 304.63 1333.64 305.06Q1334.92 305.49 1336.14 306.01Q1337.37 306.53 1338.33 307.31Q1339.29 308.09 1339.88 309.22Q1340.46 310.35 1340.46 311.94Q1340.46 313.76 1339.81 315.31Q1339.16 316.85 1337.89 317.99Q1336.61 319.12 1334.77 319.77Q1332.92 320.42 1330.50 320.42Q1327.75 320.42 1325.51 319.52Q1323.27 318.62 1321.71 317.22L1322.81 315.45Q1323.01 315.11 1323.30 314.93Q1323.59 314.75 1324.03 314.75Q1324.50 314.75 1325.02 315.11Q1325.54 315.48 1326.28 315.92Q1327.02 316.36 1328.08 316.72Q1329.15 317.09 1330.74 317.09Q1332.09 317.09 1333.10 316.74Q1334.12 316.39 1334.79 315.79Q1335.47 315.19 1335.79 314.41Q1336.12 313.63 1336.12 312.75Q1336.12 311.65 1335.53 310.94Q1334.95 310.22 1333.99 309.72Q1333.02 309.21 1331.79 308.83Q1330.55 308.46 1329.27 308.04Q1327.98 307.62 1326.75 307.09Q1325.51 306.56 1324.55 305.75Q1323.59 304.95 1323 303.76Q1322.42 302.58 1322.42 300.89Q1322.42 299.38 1323.04 297.99Q1323.66 296.60 1324.86 295.55Q1326.06 294.49 1327.80 293.87Q1329.54 293.25 1331.78 293.25Q1334.38 293.25 1336.44 294.06Q1338.51 294.88 1340.02 296.31" fill="#5a5d5e"/>
  <path d="M631.05 366.38Q631.05 370.57 629.72 374Q628.40 377.43 625.98 379.88Q623.56 382.32 620.17 383.66Q616.78 385 612.67 385L598.76 385L598.76 347.74L612.67 347.74Q616.78 347.74 620.17 349.08Q623.56 350.42 625.98 352.88Q628.40 355.33 629.72 358.77Q631.05 362.20 631.05 366.38M625.88 366.38Q625.88 362.95 624.94 360.25Q624 357.54 622.29 355.67Q620.57 353.80 618.13 352.81Q615.68 351.82 612.67 351.82L603.80 351.82L603.80 380.92L612.67 380.92Q615.68 380.92 618.13 379.93Q620.57 378.94 622.29 377.08Q624 375.22 624.94 372.52Q625.88 369.82 625.88 366.38M648.31 358.25Q651.20 358.25 653.51 359.21Q655.83 360.17 657.47 361.94Q659.10 363.71 659.98 366.21Q660.85 368.72 660.85 371.82Q660.85 374.94 659.98 377.43Q659.10 379.93 657.47 381.70Q655.83 383.47 653.51 384.42Q651.20 385.36 648.31 385.36Q645.40 385.36 643.08 384.42Q640.75 383.47 639.11 381.70Q637.47 379.93 636.60 377.43Q635.73 374.94 635.73 371.82Q635.73 368.72 636.60 366.21Q637.47 363.71 639.11 361.94Q640.75 360.17 643.08 359.21Q645.40 358.25 648.31 358.25M648.31 381.75Q652.21 381.75 654.14 379.14Q656.06 376.52 656.06 371.84Q656.06 367.14 654.14 364.51Q652.21 361.89 648.31 361.89Q646.34 361.89 644.87 362.56Q643.40 363.24 642.43 364.51Q641.45 365.79 640.97 367.64Q640.49 369.50 640.49 371.84Q640.49 376.52 642.43 379.14Q644.36 381.75 648.31 381.75M686.25 361.68L685.03 363.34Q684.82 363.63 684.61 363.78Q684.40 363.94 684.04 363.94Q683.65 363.94 683.18 363.62Q682.71 363.29 682.02 362.90Q681.33 362.51 680.33 362.19Q679.33 361.86 677.88 361.86Q675.93 361.86 674.44 362.55Q672.96 363.24 671.96 364.54Q670.96 365.84 670.45 367.68Q669.95 369.53 669.95 371.82Q669.95 374.21 670.49 376.07Q671.04 377.93 672.04 379.19Q673.04 380.45 674.46 381.11Q675.87 381.78 677.64 381.78Q679.33 381.78 680.42 381.37Q681.52 380.97 682.23 380.48Q682.95 379.98 683.43 379.58Q683.91 379.18 684.38 379.18Q684.95 379.18 685.26 379.62L686.56 381.31Q685.70 382.37 684.61 383.13Q683.52 383.88 682.26 384.39Q681 384.90 679.62 385.13Q678.24 385.36 676.81 385.36Q674.34 385.36 672.22 384.45Q670.10 383.54 668.54 381.81Q666.98 380.09 666.10 377.56Q665.21 375.04 665.21 371.82Q665.21 368.88 666.03 366.38Q666.85 363.89 668.43 362.08Q670 360.27 672.30 359.26Q674.60 358.25 677.59 358.25Q680.37 358.25 682.49 359.14Q684.61 360.04 686.25 361.68M691.53 346.70L696.18 346.70L696.18 369.24L697.38 369.24Q697.90 369.24 698.25 369.10Q698.60 368.96 698.99 368.52L707.31 359.60Q707.67 359.16 708.08 358.91Q708.48 358.66 709.15 358.66L713.34 358.66L703.64 368.98Q702.94 369.87 702.13 370.36Q702.60 370.67 702.98 371.08Q703.36 371.48 703.69 372L713.99 385L709.86 385Q709.26 385 708.83 384.81Q708.40 384.61 708.09 384.09L699.43 373.30Q699.04 372.75 698.66 372.58Q698.29 372.42 697.51 372.42L696.18 372.42L696.18 385L691.53 385L691.53 346.70M721.17 368.96L735.57 368.96Q735.57 367.35 735.12 366.01Q734.66 364.67 733.79 363.69Q732.92 362.72 731.67 362.19Q730.42 361.65 728.84 361.65Q725.51 361.65 723.57 363.59Q721.63 365.53 721.17 368.96M738.01 379.62L739.31 381.31Q738.46 382.35 737.26 383.12Q736.06 383.88 734.70 384.38Q733.33 384.87 731.88 385.12Q730.42 385.36 728.99 385.36Q726.26 385.36 723.96 384.44Q721.66 383.52 719.98 381.74Q718.31 379.96 717.37 377.33Q716.43 374.70 716.43 371.30Q716.43 368.54 717.28 366.15Q718.12 363.76 719.71 362Q721.30 360.25 723.58 359.25Q725.87 358.25 728.73 358.25Q731.10 358.25 733.11 359.04Q735.13 359.83 736.60 361.33Q738.07 362.82 738.90 365.02Q739.73 367.22 739.73 370.02Q739.73 371.12 739.50 371.48Q739.26 371.84 738.61 371.84L721.01 371.84Q721.09 374.34 721.70 376.19Q722.31 378.03 723.40 379.27Q724.49 380.50 726 381.11Q727.51 381.72 729.38 381.72Q731.12 381.72 732.39 381.32Q733.65 380.92 734.56 380.45Q735.47 379.98 736.08 379.58Q736.69 379.18 737.13 379.18Q737.70 379.18 738.01 379.62M749.48 359.94L749.79 363.94Q751.04 361.24 752.86 359.71Q754.68 358.19 757.31 358.19Q758.14 358.19 758.91 358.38Q759.67 358.56 760.27 358.95L759.93 362.41Q759.78 363.06 759.15 363.06Q758.79 363.06 758.09 362.90Q757.38 362.74 756.50 362.74Q755.25 362.74 754.28 363.11Q753.30 363.47 752.54 364.19Q751.77 364.90 751.16 365.95Q750.55 367.01 750.05 368.36L750.05 385L745.40 385L745.40 358.66L748.05 358.66Q748.80 358.66 749.09 358.95Q749.38 359.23 749.48 359.94M764.82 392.05L764.04 391.29Q763.83 391.11 763.75 390.95Q763.68 390.80 763.68 390.56Q763.68 390.38 763.79 390.20Q763.91 390.02 764.07 389.86Q764.33 389.58 764.73 389.11Q765.13 388.64 765.55 388Q765.96 387.37 766.32 386.60Q766.67 385.83 766.82 384.97Q766.74 385 766.65 385Q766.56 385 766.48 385Q765.13 385 764.29 384.10Q763.44 383.21 763.44 381.80Q763.44 380.58 764.29 379.72Q765.13 378.86 766.54 378.86Q767.32 378.86 767.91 379.15Q768.51 379.44 768.92 379.94Q769.32 380.45 769.53 381.11Q769.73 381.78 769.73 382.56Q769.73 383.73 769.41 384.99Q769.08 386.25 768.45 387.48Q767.81 388.72 766.90 389.89Q765.99 391.06 764.82 392.05M795.55 367.06L801.53 367.06Q803.69 367.06 805.34 366.49Q806.99 365.92 808.12 364.89Q809.25 363.86 809.83 362.43Q810.40 361 810.40 359.29Q810.40 355.72 808.20 353.72Q806 351.72 801.53 351.72L795.55 351.72L795.55 367.06M790.53 347.74L801.53 347.74Q805.07 347.74 807.68 348.56Q810.29 349.38 812.01 350.89Q813.73 352.40 814.57 354.53Q815.42 356.66 815.42 359.29Q815.42 361.89 814.51 364.04Q813.60 366.20 811.84 367.76Q810.09 369.32 807.50 370.19Q804.91 371.06 801.53 371.06L795.55 371.06L795.55 385L790.53 385L790.53 347.74M820.82 346.70L825.45 346.70L825.45 385L820.82 385L820.82 346.70M849.97 358.66L854.60 358.66L854.60 385L851.84 385Q850.85 385 850.59 384.04L850.23 381.20Q848.51 383.10 846.38 384.26Q844.25 385.42 841.49 385.42Q839.34 385.42 837.69 384.70Q836.03 383.99 834.92 382.69Q833.80 381.39 833.24 379.54Q832.68 377.69 832.68 375.46L832.68 358.66L837.31 358.66L837.31 375.46Q837.31 378.45 838.67 380.09Q840.04 381.72 842.85 381.72Q844.90 381.72 846.68 380.75Q848.46 379.77 849.97 378.06L849.97 358.66M871.11 372.13Q872.51 372.13 873.58 371.74Q874.64 371.35 875.37 370.65Q876.10 369.95 876.46 368.97Q876.83 368 876.83 366.83Q876.83 364.41 875.36 362.98Q873.89 361.55 871.11 361.55Q868.30 361.55 866.83 362.98Q865.36 364.41 865.36 366.83Q865.36 368 865.74 368.97Q866.12 369.95 866.84 370.65Q867.57 371.35 868.64 371.74Q869.70 372.13 871.11 372.13M879.45 386.43Q879.45 385.47 878.91 384.87Q878.36 384.27 877.44 383.93Q876.52 383.60 875.29 383.45Q874.07 383.31 872.71 383.23Q871.34 383.15 869.94 383.08Q868.53 383 867.23 382.82Q865.78 383.49 864.86 384.52Q863.93 385.55 863.93 386.92Q863.93 387.81 864.39 388.57Q864.84 389.34 865.78 389.90Q866.71 390.46 868.13 390.79Q869.55 391.11 871.47 391.11Q873.34 391.11 874.83 390.77Q876.31 390.43 877.34 389.81Q878.36 389.19 878.91 388.33Q879.45 387.47 879.45 386.43M877.01 359.70L884.16 359.70L884.16 361.42Q884.16 362.28 883.07 362.51L880.08 362.90Q880.96 364.62 880.96 366.70Q880.96 368.62 880.22 370.19Q879.48 371.77 878.18 372.88Q876.88 374 875.06 374.60Q873.24 375.20 871.11 375.20Q869.26 375.20 867.62 374.76Q866.79 375.28 866.35 375.86Q865.91 376.45 865.91 377.04Q865.91 377.98 866.68 378.46Q867.44 378.94 868.69 379.15Q869.94 379.36 871.54 379.41Q873.14 379.46 874.81 379.58Q876.49 379.70 878.09 379.98Q879.69 380.27 880.94 380.92Q882.18 381.57 882.95 382.71Q883.72 383.86 883.72 385.68Q883.72 387.37 882.87 388.95Q882.03 390.54 880.44 391.77Q878.86 393.01 876.56 393.75Q874.25 394.49 871.37 394.49Q868.48 394.49 866.32 393.92Q864.17 393.35 862.74 392.38Q861.31 391.42 860.59 390.16Q859.88 388.90 859.88 387.52Q859.88 385.57 861.10 384.22Q862.32 382.87 864.45 382.06Q863.28 381.54 862.59 380.67Q861.90 379.80 861.90 378.32Q861.90 377.75 862.11 377.13Q862.32 376.52 862.75 375.91Q863.18 375.30 863.80 374.76Q864.43 374.21 865.26 373.79Q863.31 372.70 862.22 370.89Q861.12 369.09 861.12 366.70Q861.12 364.77 861.87 363.20Q862.61 361.63 863.93 360.52Q865.26 359.42 867.09 358.82Q868.92 358.22 871.11 358.22Q872.82 358.22 874.31 358.60Q875.79 358.97 877.01 359.70M889.23 358.66L893.86 358.66L893.86 385L889.23 385L889.23 358.66M894.85 350.39Q894.85 351.07 894.57 351.65Q894.30 352.24 893.85 352.69Q893.39 353.15 892.78 353.41Q892.17 353.67 891.49 353.67Q890.82 353.67 890.23 353.41Q889.65 353.15 889.20 352.69Q888.76 352.24 888.50 351.65Q888.24 351.07 888.24 350.39Q888.24 349.72 888.50 349.11Q888.76 348.50 889.20 348.04Q889.65 347.59 890.23 347.33Q890.82 347.07 891.49 347.07Q892.17 347.07 892.78 347.33Q893.39 347.59 893.85 348.04Q894.30 348.50 894.57 349.11Q894.85 349.72 894.85 350.39M905.45 359.62L905.82 362.48Q906.68 361.52 907.64 360.74Q908.60 359.96 909.68 359.40Q910.76 358.84 911.97 358.55Q913.18 358.25 914.58 358.25Q916.74 358.25 918.39 358.96Q920.04 359.68 921.15 360.99Q922.25 362.30 922.82 364.15Q923.39 365.99 923.39 368.23L923.39 385L918.74 385L918.74 368.23Q918.74 365.24 917.38 363.59Q916.01 361.94 913.23 361.94Q911.17 361.94 909.39 362.93Q907.61 363.91 906.10 365.60L906.10 385L901.45 385L901.45 358.66L904.23 358.66Q905.22 358.66 905.45 359.62M946.85 361.31L945.81 363Q945.49 363.58 944.84 363.58Q944.45 363.58 943.96 363.29Q943.47 363 942.75 362.65Q942.04 362.30 941.05 362Q940.06 361.70 938.71 361.70Q937.54 361.70 936.60 362Q935.67 362.30 935 362.82Q934.34 363.34 933.99 364.03Q933.64 364.72 933.64 365.53Q933.64 366.54 934.22 367.22Q934.81 367.89 935.77 368.39Q936.73 368.88 937.95 369.26Q939.18 369.63 940.46 370.06Q941.75 370.49 942.97 371.01Q944.19 371.53 945.16 372.31Q946.12 373.09 946.70 374.22Q947.29 375.35 947.29 376.94Q947.29 378.76 946.64 380.31Q945.99 381.85 944.71 382.99Q943.44 384.12 941.59 384.77Q939.75 385.42 937.33 385.42Q934.57 385.42 932.34 384.52Q930.10 383.62 928.54 382.22L929.63 380.45Q929.84 380.11 930.13 379.93Q930.41 379.75 930.86 379.75Q931.32 379.75 931.84 380.11Q932.36 380.48 933.11 380.92Q933.85 381.36 934.91 381.72Q935.98 382.09 937.56 382.09Q938.92 382.09 939.93 381.74Q940.94 381.39 941.62 380.79Q942.30 380.19 942.62 379.41Q942.95 378.63 942.95 377.75Q942.95 376.65 942.36 375.94Q941.78 375.22 940.81 374.72Q939.85 374.21 938.62 373.83Q937.38 373.46 936.10 373.04Q934.81 372.62 933.57 372.09Q932.34 371.56 931.38 370.75Q930.41 369.95 929.83 368.76Q929.24 367.58 929.24 365.89Q929.24 364.38 929.87 362.99Q930.49 361.60 931.69 360.55Q932.88 359.49 934.63 358.87Q936.37 358.25 938.60 358.25Q941.20 358.25 943.27 359.06Q945.34 359.88 946.85 361.31M980.57 378.60L980.57 373.14Q977.37 373.25 975.12 373.65Q972.87 374.05 971.46 374.70Q970.04 375.35 969.40 376.24Q968.76 377.12 968.76 378.21Q968.76 379.25 969.10 380.01Q969.44 380.76 970.03 381.24Q970.61 381.72 971.40 381.94Q972.20 382.17 973.11 382.17Q974.33 382.17 975.34 381.92Q976.36 381.67 977.25 381.20Q978.15 380.74 978.97 380.09Q979.79 379.44 980.57 378.60M966.45 363.86L965.62 362.38Q967.80 360.27 970.32 359.23Q972.85 358.19 975.91 358.19Q978.12 358.19 979.84 358.92Q981.56 359.65 982.73 360.95Q983.90 362.25 984.49 364.10Q985.09 365.94 985.09 368.15L985.09 385L983.04 385Q982.36 385 982 384.78Q981.63 384.56 981.43 383.91L980.91 381.41Q979.87 382.37 978.88 383.12Q977.89 383.86 976.80 384.36Q975.71 384.87 974.47 385.14Q973.24 385.42 971.73 385.42Q970.19 385.42 968.84 384.99Q967.49 384.56 966.49 383.70Q965.49 382.84 964.90 381.53Q964.32 380.22 964.32 378.42Q964.32 376.86 965.18 375.42Q966.03 373.98 967.96 372.86Q969.88 371.74 972.98 371.02Q976.07 370.31 980.57 370.21L980.57 368.15Q980.57 365.08 979.24 363.51Q977.92 361.94 975.37 361.94Q973.65 361.94 972.50 362.37Q971.34 362.80 970.49 363.33Q969.65 363.86 969.04 364.29Q968.43 364.72 967.83 364.72Q967.36 364.72 967.02 364.47Q966.68 364.23 966.45 363.86M996.14 359.62L996.51 362.48Q997.36 361.52 998.33 360.74Q999.29 359.96 1000.37 359.40Q1001.45 358.84 1002.66 358.55Q1003.86 358.25 1005.27 358.25Q1007.43 358.25 1009.08 358.96Q1010.73 359.68 1011.83 360.99Q1012.94 362.30 1013.51 364.15Q1014.08 365.99 1014.08 368.23L1014.08 385L1009.43 385L1009.43 368.23Q1009.43 365.24 1008.06 363.59Q1006.70 361.94 1003.92 361.94Q1001.86 361.94 1000.08 362.93Q998.30 363.91 996.79 365.60L996.79 385L992.14 385L992.14 358.66L994.92 358.66Q995.91 358.66 996.14 359.62M1038.31 377.64L1038.31 364.93Q1037.01 363.19 1035.51 362.50Q1034 361.81 1032.13 361.81Q1028.46 361.81 1026.48 364.43Q1024.51 367.06 1024.51 371.92Q1024.51 374.50 1024.95 376.33Q1025.39 378.16 1026.25 379.35Q1027.11 380.53 1028.36 381.07Q1029.60 381.62 1031.19 381.62Q1033.48 381.62 1035.18 380.58Q1036.88 379.54 1038.31 377.64M1038.31 346.70L1042.94 346.70L1042.94 385L1040.19 385Q1039.20 385 1038.94 384.04L1038.52 380.84Q1036.83 382.87 1034.67 384.12Q1032.52 385.36 1029.68 385.36Q1027.42 385.36 1025.57 384.49Q1023.73 383.62 1022.43 381.93Q1021.13 380.24 1020.43 377.72Q1019.72 375.20 1019.72 371.92Q1019.72 369.01 1020.50 366.50Q1021.28 363.99 1022.74 362.15Q1024.20 360.30 1026.32 359.25Q1028.43 358.19 1031.09 358.19Q1033.50 358.19 1035.23 359.01Q1036.96 359.83 1038.31 361.29L1038.31 346.70M1090.94 347.74L1094.97 347.74L1079.78 385L1075.26 385L1060.08 347.74L1064.11 347.74Q1064.78 347.74 1065.20 348.08Q1065.61 348.42 1065.82 348.94L1076.33 375.22Q1076.66 376.11 1076.99 377.15Q1077.31 378.19 1077.57 379.33Q1077.83 378.19 1078.12 377.15Q1078.41 376.11 1078.74 375.22L1089.22 348.94Q1089.38 348.50 1089.83 348.12Q1090.29 347.74 1090.94 347.74M1134.93 347.74L1138.65 347.74L1138.65 385L1134.23 385L1134.23 357.62Q1134.23 357.08 1134.27 356.45Q1134.31 355.83 1134.36 355.18L1121.57 378.47Q1120.97 379.64 1119.75 379.64L1119.02 379.64Q1117.80 379.64 1117.20 378.47L1104.15 355.07Q1104.30 356.45 1104.30 357.62L1104.30 385L1099.88 385L1099.88 347.74L1103.60 347.74Q1104.28 347.74 1104.64 347.87Q1105 348 1105.34 348.60L1118.21 371.53Q1118.52 372.16 1118.82 372.83Q1119.12 373.51 1119.38 374.21Q1119.64 373.51 1119.93 372.82Q1120.21 372.13 1120.55 371.51L1133.19 348.60Q1133.50 348 1133.88 347.87Q1134.25 347.74 1134.93 347.74M1168.47 385.42Q1165.35 385.42 1163.67 383.67Q1162 381.93 1162 378.66L1162 362.54L1158.82 362.54Q1158.41 362.54 1158.12 362.29Q1157.84 362.04 1157.84 361.52L1157.84 359.68L1162.15 359.13L1163.22 350.99Q1163.30 350.60 1163.57 350.36Q1163.84 350.11 1164.28 350.11L1166.62 350.11L1166.62 359.18L1174.24 359.18L1174.24 362.54L1166.62 362.54L1166.62 378.34Q1166.62 380.01 1167.43 380.81Q1168.24 381.62 1169.51 381.62Q1170.24 381.62 1170.77 381.43Q1171.30 381.23 1171.69 381Q1172.08 380.76 1172.36 380.57Q1172.63 380.37 1172.84 380.37Q1173.20 380.37 1173.49 380.81L1174.84 383.02Q1173.64 384.14 1171.95 384.78Q1170.26 385.42 1168.47 385.42M1193.30 378.60L1193.30 373.14Q1190.10 373.25 1187.85 373.65Q1185.60 374.05 1184.19 374.70Q1182.77 375.35 1182.13 376.24Q1181.50 377.12 1181.50 378.21Q1181.50 379.25 1181.83 380.01Q1182.17 380.76 1182.76 381.24Q1183.34 381.72 1184.13 381.94Q1184.93 382.17 1185.84 382.17Q1187.06 382.17 1188.07 381.92Q1189.09 381.67 1189.98 381.20Q1190.88 380.74 1191.70 380.09Q1192.52 379.44 1193.30 378.60M1179.18 363.86L1178.35 362.38Q1180.53 360.27 1183.06 359.23Q1185.58 358.19 1188.65 358.19Q1190.86 358.19 1192.57 358.92Q1194.29 359.65 1195.46 360.95Q1196.63 362.25 1197.23 364.10Q1197.82 365.94 1197.82 368.15L1197.82 385L1195.77 385Q1195.09 385 1194.73 384.78Q1194.37 384.56 1194.16 383.91L1193.64 381.41Q1192.60 382.37 1191.61 383.12Q1190.62 383.86 1189.53 384.36Q1188.44 384.87 1187.20 385.14Q1185.97 385.42 1184.46 385.42Q1182.93 385.42 1181.57 384.99Q1180.22 384.56 1179.22 383.70Q1178.22 382.84 1177.63 381.53Q1177.05 380.22 1177.05 378.42Q1177.05 376.86 1177.91 375.42Q1178.77 373.98 1180.69 372.86Q1182.61 371.74 1185.71 371.02Q1188.80 370.31 1193.30 370.21L1193.30 368.15Q1193.30 365.08 1191.97 363.51Q1190.65 361.94 1188.10 361.94Q1186.38 361.94 1185.23 362.37Q1184.07 362.80 1183.22 363.33Q1182.38 363.86 1181.77 364.29Q1181.16 364.72 1180.56 364.72Q1180.09 364.72 1179.75 364.47Q1179.42 364.23 1179.18 363.86M1209.52 365.92L1209.52 378.66Q1210.80 380.37 1212.32 381.07Q1213.84 381.78 1215.66 381.78Q1219.38 381.78 1221.35 379.15Q1223.33 376.52 1223.33 371.32Q1223.33 366.49 1221.58 364.21Q1219.82 361.94 1216.57 361.94Q1214.31 361.94 1212.63 362.98Q1210.95 364.02 1209.52 365.92M1209.52 346.70L1209.52 362.46Q1211.19 360.53 1213.28 359.39Q1215.37 358.25 1218.10 358.25Q1220.42 358.25 1222.28 359.13Q1224.14 360.01 1225.44 361.69Q1226.74 363.37 1227.42 365.76Q1228.11 368.15 1228.11 371.14Q1228.11 374.34 1227.33 376.97Q1226.55 379.59 1225.09 381.45Q1223.62 383.31 1221.51 384.34Q1219.40 385.36 1216.78 385.36Q1214.18 385.36 1212.40 384.39Q1210.62 383.41 1209.29 381.62L1209.06 384.01Q1208.85 385 1207.86 385L1204.87 385L1204.87 346.70L1209.52 346.70M1250.37 361.31L1249.33 363Q1249.02 363.58 1248.37 363.58Q1247.98 363.58 1247.48 363.29Q1246.99 363 1246.27 362.65Q1245.56 362.30 1244.57 362Q1243.58 361.70 1242.23 361.70Q1241.06 361.70 1240.13 362Q1239.19 362.30 1238.53 362.82Q1237.86 363.34 1237.51 364.03Q1237.16 364.72 1237.16 365.53Q1237.16 366.54 1237.75 367.22Q1238.33 367.89 1239.29 368.39Q1240.26 368.88 1241.48 369.26Q1242.70 369.63 1243.99 370.06Q1245.27 370.49 1246.50 371.01Q1247.72 371.53 1248.68 372.31Q1249.64 373.09 1250.23 374.22Q1250.81 375.35 1250.81 376.94Q1250.81 378.76 1250.16 380.31Q1249.51 381.85 1248.24 382.99Q1246.96 384.12 1245.12 384.77Q1243.27 385.42 1240.85 385.42Q1238.10 385.42 1235.86 384.52Q1233.63 383.62 1232.07 382.22L1233.16 380.45Q1233.37 380.11 1233.65 379.93Q1233.94 379.75 1234.38 379.75Q1234.85 379.75 1235.37 380.11Q1235.89 380.48 1236.63 380.92Q1237.37 381.36 1238.44 381.72Q1239.50 382.09 1241.09 382.09Q1242.44 382.09 1243.45 381.74Q1244.47 381.39 1245.14 380.79Q1245.82 380.19 1246.14 379.41Q1246.47 378.63 1246.47 377.75Q1246.47 376.65 1245.88 375.94Q1245.30 375.22 1244.34 374.72Q1243.38 374.21 1242.14 373.83Q1240.91 373.46 1239.62 373.04Q1238.33 372.62 1237.10 372.09Q1235.86 371.56 1234.90 370.75Q1233.94 369.95 1233.35 368.76Q1232.77 367.58 1232.77 365.89Q1232.77 364.38 1233.39 362.99Q1234.02 361.60 1235.21 360.55Q1236.41 359.49 1238.15 358.87Q1239.89 358.25 1242.13 358.25Q1244.73 358.25 1246.79 359.06Q1248.86 359.88 1250.37 361.31M1255.73 382.14Q1255.73 381.46 1255.97 380.87Q1256.22 380.27 1256.65 379.83Q1257.08 379.38 1257.68 379.12Q1258.27 378.86 1258.95 378.86Q1259.63 378.86 1260.22 379.12Q1260.82 379.38 1261.26 379.83Q1261.71 380.27 1261.97 380.87Q1262.23 381.46 1262.23 382.14Q1262.23 382.84 1261.97 383.43Q1261.71 384.01 1261.26 384.45Q1260.82 384.90 1260.22 385.14Q1259.63 385.39 1258.95 385.39Q1258.27 385.39 1257.68 385.14Q1257.08 384.90 1256.65 384.45Q1256.22 384.01 1255.97 383.43Q1255.73 382.84 1255.73 382.14" fill="#5a5d5e"/>
</svg>
